<?xml version="1.0" encoding="utf-8"?>
<!-- Generator: Adobe Illustrator 21.1.0, SVG Export Plug-In . SVG Version: 6.00 Build 0)  -->
<svg version="1.1" xmlns="http://www.w3.org/2000/svg" xmlns:xlink="http://www.w3.org/1999/xlink" x="0px" y="0px"
	 viewBox="0 0 480 480" style="enable-background:new 0 0 480 480;" xml:space="preserve">
<style type="text/css">
	.st0{display:none;}
	.st1{display:inline;}
	.st2{fill:none;stroke:#000000;stroke-miterlimit:10;}
	.st3{display:inline;fill:none;stroke:#000000;stroke-miterlimit:10;}
	.st4{fill:#707070;stroke:#707070;stroke-width:5;stroke-linecap:round;stroke-linejoin:round;stroke-miterlimit:10;}
	.st5{fill:none;stroke:#707070;stroke-width:5;stroke-linecap:round;stroke-linejoin:round;stroke-miterlimit:10;}
	.st6{fill:#707070;stroke:#707070;stroke-width:5;stroke-linecap:round;stroke-linejoin:round;}
	.st7{fill:none;stroke:#707070;stroke-width:5;stroke-linecap:round;stroke-linejoin:round;}
</style>
<g id="Capa_1" class="st0">
	<g class="st1">
		<g>
			<path d="M472,464H8c-4.4,0-8,3.6-8,8s3.6,8,8,8h464c4.4,0,8-3.6,8-8S476.4,464,472,464z"/>
		</g>
	</g>
	<g class="st1">
		<g>
			<g>
				<path d="M448,448.5H32c-4.7,0-8.5-3.8-8.5-8.5s3.8-8.5,8.5-8.5h416c4.7,0,8.5,3.8,8.5,8.5S452.7,448.5,448,448.5z M32,432.5
					c-4.1,0-7.5,3.4-7.5,7.5s3.4,7.5,7.5,7.5h416c4.1,0,7.5-3.4,7.5-7.5s-3.4-7.5-7.5-7.5H32z"/>
			</g>
		</g>
	</g>
	<g class="st1">
		<g>
			<path d="M424,400h-16V176h16c4.4,0,8-3.6,8-8s-3.6-8-8-8H56c-4.4,0-8,3.6-8,8s3.6,8,8,8h16v224H56c-4.4,0-8,3.6-8,8s3.6,8,8,8
				h368c4.4,0,8-3.6,8-8S428.4,400,424,400z M120,400H88V176h32V400z M208,400h-72V176h72V400z M256,400h-32V176h32V400z M344,400
				h-72V176h72V400z M392,400h-32V176h32V400z"/>
		</g>
	</g>
	<g class="st1">
		<g>
			<path class="st2" d="M424,144c4.4,0,8-3.6,8-8c0-2.6-1.3-5.1-3.4-6.6l-184-128c-2.7-1.9-6.4-1.9-9.1,0l-184,128
				c-3.6,2.5-4.5,7.5-2,11.1c1.5,2.2,3.9,3.4,6.6,3.4 M56,144h368 M81.5,128L240,17.7L398.5,128H81.5z"/>
		</g>
	</g>
	<line class="st3" x1="240" y1="17.7" x2="398.5" y2="128"/>
	<g class="st1">
		<g>
			<path class="st2" d="M424,144c4.4,0,8-3.6,8-8c0-2.6-1.3-5.1-3.4-6.6l-184-128c-2.7-1.9-6.4-1.9-9.1,0l-184,128
				c-3.6,2.5-4.5,7.5-2,11.1c1.5,2.2,3.9,3.4,6.6,3.4 M56,144h368 M81.5,128L240,17.7L398.5,128H81.5z"/>
		</g>
	</g>
</g>
<g id="Layer_2">
	<line class="st4" x1="48" y1="168" x2="432" y2="168"/>
	<line class="st5" x1="48" y1="408" x2="432" y2="408"/>
	<line class="st5" x1="24.5" y1="440" x2="455.5" y2="440"/>
	<line class="st5" x1="0" y1="472" x2="480" y2="472"/>
	<line class="st6" x1="216" y1="168" x2="216" y2="407.8"/>
	<line class="st7" x1="128" y1="168" x2="128" y2="408"/>
	<line class="st4" x1="79.5" y1="168.5" x2="79.5" y2="408"/>
	<line class="st7" x1="264" y1="168" x2="264" y2="407.8"/>
	<line class="st7" x1="352" y1="168" x2="352" y2="407.8"/>
	<line class="st7" x1="400" y1="168" x2="400" y2="407.8"/>
	<g>
		<g>
			<path class="st5" d="M424,144c4.4,0,8-3.6,8-8c0-2.6-1.3-5.1-3.4-6.6l-184-128c-2.7-1.9-6.4-1.9-9.1,0l-184,128
				c-3.6,2.5-4.5,7.5-2,11.1c1.5,2.2,3.9,3.4,6.6,3.4 M56,144h368 M81.5,128L240,17.7L398.5,128H81.5z"/>
		</g>
	</g>
</g>
</svg>
