<?xml version="1.0" encoding="utf-8"?>
<!-- Generator: Adobe Illustrator 21.1.0, SVG Export Plug-In . SVG Version: 6.00 Build 0)  -->
<svg version="1.1" id="Layer_1" xmlns="http://www.w3.org/2000/svg" xmlns:xlink="http://www.w3.org/1999/xlink" x="0px" y="0px"
	 viewBox="0 0 100 100" style="enable-background:new 0 0 100 100;" xml:space="preserve">
<style type="text/css">
	.st0{fill:none;stroke:#707070;stroke-width:2;stroke-miterlimit:10;}
	.st1{fill:#707070;}
</style>
<g id="Layer_1_1_">
	<path class="st0" d="M88.7,24.8H10.6c-3.2,0-5.8,1.5-5.8,3.5v47.2c0,1.8,2.6,3.4,5.8,3.4H89c3.2,0,5.8-1.5,5.8-3.5V28.3
		C94.5,26.4,92,24.8,88.7,24.8z"/>
</g>
<g id="Layer_2">
	<g>
		<g>
			<path class="st1" d="M29.8,40.4c-1-0.6-2.2-0.8-3.4-0.8c-1.9,0-3.6,0.5-5.1,1.4c-1.4,0.9-2.6,2.3-3.3,4.1c-0.8,1.8-1.2,4-1.2,6.5
				c0,4.2,0.9,7.3,2.7,9.4s4.5,3.1,8.1,3.1c2.2,0,4.3-0.5,6.5-1.4l1,4c-2.6,1-5.4,1.5-8.3,1.5c-10,0-14.9-5.5-14.9-16.5
				c0-3.5,0.6-6.4,1.7-8.9s2.8-4.3,4.9-5.6c2.2-1.3,4.7-1.9,7.8-1.9c2.2,0,4.1,0.4,5.8,1.1c1.6,0.7,2.8,1.7,3.6,3l-3.3,3.3
				C31.7,41.8,30.9,41,29.8,40.4z"/>
			<path class="st1" d="M59,54.4c1.2,1.4,1.8,3.2,1.8,5.3c0,2.9-0.9,5.1-2.8,6.5c-1.9,1.5-4.8,2.2-8.6,2.2c-3.6,0-6.8-0.6-9.5-1.8
				l0.6-4.6c3.3,1.4,6.4,2.2,9.3,2.2c2.1,0,3.7-0.4,4.7-1.1c1-0.7,1.5-1.9,1.5-3.4c0-1.9-1-3.3-2.9-4.2L47.6,53
				c-2.3-1-3.9-2.2-5.1-3.7c-1.1-1.4-1.7-3.1-1.7-5.1c0-1.8,0.4-3.4,1.2-4.7s2-2.3,3.5-3s3.4-1,5.6-1l0,0c2.2,0,4.1,0.4,5.8,1.3
				c1.6,0.9,2.8,2.1,3.6,3.6l-3.8,2.9c-0.6-1.2-1.4-2.1-2.4-2.7c-1-0.6-2-1-3.1-1c-1.8,0-3.1,0.4-4.1,1.1s-1.4,1.8-1.4,3.3
				c0,1,0.3,1.8,0.8,2.5s1.4,1.3,2.5,1.8l4.7,2.2C56,51.7,57.8,53,59,54.4z"/>
			<path class="st1" d="M86,54.4c1.2,1.4,1.8,3.2,1.8,5.3c0,2.9-0.9,5.1-2.8,6.5c-1.9,1.5-4.8,2.2-8.6,2.2c-3.6,0-6.8-0.6-9.5-1.8
				l0.6-4.6c3.3,1.4,6.4,2.2,9.3,2.2c2.1,0,3.7-0.4,4.7-1.1c1-0.7,1.5-1.9,1.5-3.4c0-1.9-1-3.3-2.9-4.2L74.6,53
				c-2.3-1-3.9-2.2-5.1-3.7c-1.1-1.4-1.7-3.1-1.7-5.1c0-1.8,0.4-3.4,1.2-4.7c0.8-1.3,2-2.3,3.5-3s3.4-1,5.6-1l0,0
				c2.2,0,4.1,0.4,5.8,1.3c1.6,0.9,2.8,2.1,3.6,3.6l-3.8,2.9c-0.6-1.2-1.4-2.1-2.4-2.7c-1-0.6-2-1-3.1-1c-1.8,0-3.1,0.4-4.1,1.1
				s-1.4,1.8-1.4,3.3c0,1,0.3,1.8,0.8,2.5s1.4,1.3,2.5,1.8l4.7,2.2C83,51.7,84.9,53,86,54.4z"/>
		</g>
	</g>
</g>
</svg>
