<svg version="1.1" id="Layer_1" xmlns="http://www.w3.org/2000/svg" x="0" y="0" viewBox="0 0 841.9 595.3" xml:space="preserve">
  <style>
    .st0{fill:#707070}
  </style>
  <path class="st0" d="M752.7 296.5c0-43.9-55-85.6-139.4-111.4 19.5-86 10.8-154.4-27.3-176.3-8.8-5.1-19.1-7.6-30.3-7.6v30.2c6.2 0 11.2 1.2 15.4 3.5 18.4 10.5 26.4 50.7 20.1 102.3-1.5 12.7-3.9 26.1-6.9 39.7-26.5-6.5-55.4-11.5-85.9-14.7-18.3-25-37.2-47.7-56.2-67.6 44.1-41 85.4-63.4 113.6-63.4V1.1c-37.2 0-85.9 26.5-135.1 72.5-49.2-45.7-97.9-72-135-72v30.2c28 0 69.5 22.3 113.6 63-18.9 19.9-37.9 42.5-55.8 67.5-30.6 3.2-59.5 8.2-86 14.9-3.1-13.5-5.4-26.6-7-39.2-6.4-51.6 1.5-91.8 19.7-102.5 4.1-2.4 9.3-3.5 15.5-3.5V1.8c-11.4 0-21.6 2.4-30.6 7.6-38 21.9-46.5 90.2-26.9 175.9-84.1 26-138.9 67.5-138.9 111.3 0 43.9 55 85.6 139.4 111.4-19.5 86-10.8 154.4 27.3 176.3 8.8 5.1 19.1 7.6 30.4 7.6 37.2 0 85.9-26.5 135.1-72.5 49.2 45.7 97.9 71.9 135.1 71.9 11.4 0 21.6-2.4 30.6-7.6 38-21.9 46.5-90.2 26.9-175.9 83.8-25.8 138.6-67.5 138.6-111.3zm-176.1-90.2c-5 17.4-11.2 35.4-18.3 53.4-5.5-10.8-11.4-21.6-17.7-32.4-6.2-10.8-12.8-21.4-19.5-31.6 19.3 2.8 37.8 6.3 55.5 10.6zm-61.9 144c-10.5 18.3-21.4 35.6-32.6 51.6-20.1 1.8-40.6 2.7-61.1 2.7-20.4 0-40.8-.9-60.8-2.6-11.2-16.1-22.2-33.3-32.7-51.4-10.3-17.7-19.6-35.7-28.1-53.8 8.4-18.1 17.8-36.2 28-53.9 10.5-18.3 21.4-35.6 32.6-51.6 20.1-1.8 40.6-2.7 61.1-2.7 20.4 0 40.8.9 60.8 2.6 11.2 16.1 22.2 33.3 32.7 51.4 10.3 17.7 19.6 35.7 28.1 53.8-8.5 18.1-17.9 36.2-28 53.9zm43.7-17.5c7.3 18.1 13.5 36.2 18.7 53.8-17.7 4.3-36.4 8-55.7 10.8 6.6-10.4 13.2-21.1 19.5-32 6.1-10.9 11.9-21.8 17.5-32.6zM421.3 477c-12.6-13-25.1-27.4-37.6-43.3 12.2.5 24.6.9 37.2.9 12.7 0 25.3-.3 37.6-.9-12.2 15.9-24.8 30.3-37.2 43.3zm-100.6-79.6c-19.2-2.8-37.7-6.4-55.4-10.7 5-17.4 11.2-35.4 18.3-53.4 5.5 10.8 11.4 21.6 17.7 32.4 6.3 10.9 12.8 21.4 19.4 31.7zM420.6 116c12.6 13 25.1 27.4 37.6 43.3-12.2-.5-24.6-.9-37.2-.9-12.7 0-25.3.3-37.6.9 12.2-15.8 24.8-30.3 37.2-43.3zm-100.1 79.7c-6.6 10.4-13.2 21.1-19.5 32-6.2 10.8-12 21.6-17.6 32.4-7.3-18.1-13.5-36.2-18.7-53.8 17.9-4.2 36.5-7.8 55.8-10.6zM198.2 364.9c-47.9-20.4-78.8-47.2-78.8-68.4s31-48.1 78.8-68.4c11.6-5 24.3-9.5 37.5-13.7 7.7 26.5 17.8 54.1 30.4 82.3-12.4 28.1-22.4 55.6-30 81.9-13.4-4.1-26.2-8.7-37.9-13.7zm72.7 193.2c-18.4-10.5-26.4-50.7-20.1-102.3 1.5-12.7 3.9-26.1 6.9-39.7 26.5 6.5 55.4 11.5 85.9 14.7 18.3 25 37.2 47.7 56.2 67.6-44.1 41-85.4 63.4-113.6 63.4-6.1-.1-11.2-1.4-15.3-3.7zm320.7-103c6.4 51.6-1.5 91.8-19.7 102.5-4.1 2.4-9.3 3.5-15.5 3.5-28 0-69.5-22.3-113.6-63 18.9-19.9 37.9-42.5 55.8-67.5 30.6-3.2 59.5-8.2 86-14.9 3.1 13.7 5.5 26.8 7 39.4zm52.1-90.2c-11.6 5-24.3 9.5-37.5 13.7-7.7-26.5-17.8-54.1-30.4-82.3 12.4-28.1 22.4-55.6 30-81.9 13.4 4.2 26.1 8.8 38 13.8 47.9 20.4 78.8 47.2 78.8 68.4-.1 21.1-31.1 48-78.9 68.3z"/>
  <circle class="st0" cx="420.9" cy="296.5" r="45.7"/>
</svg>
