<?xml version="1.0" encoding="utf-8"?>
<!-- Generator: Adobe Illustrator 21.1.0, SVG Export Plug-In . SVG Version: 6.00 Build 0)  -->
<svg version="1.1" id="Layer_1" xmlns="http://www.w3.org/2000/svg" xmlns:xlink="http://www.w3.org/1999/xlink" x="0px" y="0px"
	 viewBox="0 0 100 100" style="enable-background:new 0 0 100 100;" xml:space="preserve">
<style type="text/css">
	.st0{display:none;fill:#707070;}
	.st1{fill:#707070;}
</style>
<path class="st0" d="M13.3,8C10.4,8,8,10.4,8,13.3v73.3c0,2.9,2.4,5.3,5.3,5.3h73.3c2.9,0,5.3-2.4,5.3-5.3V13.3
	c0-2.9-2.4-5.3-5.3-5.3H13.3z M13.3,12h73.3c0.7,0,1.3,0.6,1.3,1.3v73.3c0,0.7-0.6,1.3-1.3,1.3H13.3c-0.7,0-1.3-0.6-1.3-1.3V13.3
	C12,12.6,12.6,12,13.3,12z M46,46v25.1c0,3.9-1.5,4.9-4,4.9c-2.7,0-4.5-1.7-5.7-3.8L30,76c1.8,3.9,6.3,8,12.5,8
	C49.3,84,54,80.4,54,72.4V46H46z M70.9,46c-6.8,0-11.2,4.4-11.2,10.1c0,6.2,3.7,9.1,9.2,11.5l1.9,0.8c3.5,1.5,5.2,2.5,5.2,5.1
	c0,2.2-1.7,3.8-4.8,3.8c-3.8,0-5.5-2.6-7.2-5.2l-6,4c2.2,4.4,6.3,8,13.4,8C78.6,84,84,80.2,84,73.4c0-6.4-3.7-9.2-10.1-12L72,60.6
	c-3.3-1.4-4.7-2.3-4.7-4.6c0-1.9,1.4-3.3,3.7-3.3c2.2,0,3.6,0.9,4.9,3.3l5.9-3.8C79.3,47.7,75.8,46,70.9,46z"/>
<path class="st1" d="M13.3,90.9c-2.3,0-4.3-2-4.3-4.3V13.3C9,11,11,9,13.3,9h73.3c2.3,0,4.3,2,4.3,4.3v73.3c0,2.3-2,4.3-4.3,4.3
	H13.3z M13.3,11c-1.2,0-2.3,1.1-2.3,2.3v73.3c0,1.2,1.1,2.3,2.3,2.3h73.3c1.2,0,2.3-1.1,2.3-2.3V13.3c0-1.2-1.1-2.3-2.3-2.3H13.3z
	 M71.4,83.1c-5.5,0-9.6-2.2-12.1-6.7l4.4-2.9c1.6,2.4,3.6,4.8,7.5,4.8c3.5,0,5.8-1.9,5.8-4.8c0-3.3-2.3-4.5-5.8-6l-1.9-0.8
	c-5.3-2.3-8.6-4.9-8.6-10.6c0-5.4,4.2-9.1,10.2-9.1c4.5,0,7.4,1.5,9.5,4.9l-4.2,2.7c-1.3-2-3-2.9-5.2-2.9c-2.8,0-4.7,1.8-4.7,4.3
	c0,3,2.1,4.2,5.3,5.5l1.9,0.8C79.7,65,83,67.6,83,73.4C83,80.4,77,83,71.4,83.1z M42.5,83c-5.2,0-9.3-3.2-11.2-6.6l4.7-2.8
	c1.6,2.3,3.6,3.4,6,3.4c3.4,0,5-1.9,5-5.9V47h6v25.4C53,81.2,47.3,83,42.5,83z"/>
</svg>
