<svg xmlns="http://www.w3.org/2000/svg" viewBox="0 0 100 100">
	<path d="M10 91c-.6 0-1-.4-1-1V10c0-.6.4-1 1-1h80c.6 0 1 .4 1 1v80c0 .6-.4 1-1 1H10z" fill="none" stroke="#707070" stroke-width="3"/>
	<path d="M41 83V51.9H31V47h26v4.9H47V83h-6zm30.1-.1c-4.2 0-8.3-1-9.9-1.5v-5.7c1.9 1.1 5.2 2.6 9 2.6 2.2 0 3.8-.5 4.9-1.6.9-.9 1.3-2 1.3-3.4 0-2.7-2.8-4.1-6-5.7-4.4-2.2-9.4-4.7-9.4-11 0-6.4 4.2-9.6 12.4-9.6 3.4 0 6.7.6 8.1 1l-.2 4.9c-1.6-.8-4.2-1.8-7.1-1.8-6.3 0-6.8 4-6.8 5.2 0 2.9 3.1 4.4 6.4 5.9 4.3 2 9.2 4.4 9.2 10.4 0 6.8-4 10.3-11.9 10.3z" fill="#707070"/>
</svg>
