<?xml version="1.0" encoding="utf-8"?>
<!-- Generator: Adobe Illustrator 21.1.0, SVG Export Plug-In . SVG Version: 6.00 Build 0)  -->
<svg version="1.1" id="Layer_1" xmlns="http://www.w3.org/2000/svg" xmlns:xlink="http://www.w3.org/1999/xlink" x="0px" y="0px"
	 viewBox="0 0 330.7 364.2" style="enable-background:new 0 0 330.7 364.2;" xml:space="preserve">
<style type="text/css">
	.st0{fill:#707070;}
</style>
<g>
	<path class="st0" d="M153.5,43c7-4,16.2-4,23.2,0c35.4,20,70.8,39.9,106.1,59.9c6.7,3.7,11.1,11.2,11,18.8V242
		c0,8-4.8,15.6-11.9,19.2c-35.3,19.9-70.5,39.8-105.7,59.7c-7.2,4.1-16.5,3.8-23.5-0.7c-10.6-6.1-21.2-12.2-31.7-18.3
		c-2.2-1.3-4.6-2.3-6.1-4.4c1.3-1.8,3.8-2,5.7-2.8c4.4-1.4,8.5-3.7,12.5-5.8c1-0.7,2.3-0.4,3.3,0.2c9,5.2,18,10.5,27.1,15.6
		c1.9,1.1,3.9-0.4,5.5-1.3c34.6-19.6,69.2-39,103.8-58.6c1.3-0.6,2-2,1.9-3.4c0-39.7,0-79.3,0-119c0.1-1.6-0.8-3.1-2.2-3.7
		c-35.1-19.8-70.3-39.6-105.4-59.4c-1.2-0.9-2.9-0.9-4.1,0c-35.1,19.8-70.2,39.6-105.4,59.4c-1.4,0.7-2.4,2.1-2.2,3.7
		c0,39.7,0,79.3,0,119c-0.1,1.4,0.6,2.7,1.9,3.3c9.4,5.3,18.8,10.6,28.1,15.9c5.3,2.8,11.8,4.5,17.6,2.4c5.1-1.8,8.7-7.1,8.6-12.5
		c0-39.4,0-78.9,0-118.3c-0.1-1.8,1.5-3.2,3.2-3c4.5,0,9-0.1,13.5,0c1.9,0,3.2,1.8,2.9,3.6c0,39.7,0,79.4,0,119.1
		c0,10.6-4.3,22.1-14.1,27.3c-12.1,6.2-26.9,4.9-38.9-1.1c-10.3-5.1-20.1-11.2-30.3-16.7c-7-3.6-11.9-11.3-11.9-19.2V121.8
		c-0.1-7.8,4.6-15.4,11.4-19.1C83,82.8,118.2,62.9,153.5,43z"/>
	<path class="st0" d="M184.2,126.3c15.4-1,31.8-0.6,45.7,7c10.7,5.8,16.6,18,16.8,29.9c-0.3,1.6-2,2.5-3.5,2.4
		c-4.5,0-8.9,0.1-13.4,0c-1.9,0.1-3-1.7-3.2-3.3c-1.3-5.7-4.4-11.3-9.7-14.1c-8.2-4.1-17.8-3.9-26.7-3.8c-6.5,0.3-13.6,0.9-19.1,4.8
		c-4.3,2.9-5.6,8.8-4,13.5c1.4,3.4,5.4,4.5,8.6,5.5c18.5,4.8,38.2,4.4,56.3,10.7c7.5,2.6,14.9,7.7,17.5,15.5
		c3.4,10.6,1.9,23.2-5.6,31.7c-6.1,7-15,10.8-23.8,12.8c-11.8,2.6-24,2.7-35.9,1.5c-11.2-1.3-22.9-4.2-31.6-11.9
		c-7.4-6.4-11-16.5-10.7-26.2c0.1-1.6,1.7-2.8,3.3-2.6c4.5,0,9,0,13.5,0c1.8-0.1,3.1,1.4,3.2,3.1c0.8,5.4,2.9,11.1,7.6,14.3
		c9.1,5.9,20.6,5.5,31,5.7c8.7-0.4,18.4-0.5,25.4-6.2c3.7-3.3,4.8-8.7,3.8-13.4c-1.1-4-5.2-5.8-8.8-7c-18.3-5.8-38.1-3.7-56.3-10.2
		c-7.4-2.6-14.5-7.5-17.3-15.1c-3.9-10.7-2.1-23.9,6.2-32.1C161.5,130.6,173.1,127.4,184.2,126.3L184.2,126.3z"/>
</g>
</svg>
